<svg width="16" height="12" viewBox="0 0 16 12" fill="none" xmlns="http://www.w3.org/2000/svg">
<path d="M8 0.166626C4.36364 0.166626 1.25818 2.42844 0 5.62117C1.25818 8.8139 4.36364 11.0757 8 11.0757C11.6364 11.0757 14.7418 8.8139 16 5.62117C14.7418 2.42844 11.6364 0.166626 8 0.166626ZM8 9.25753C5.99273 9.25753 4.36364 7.62844 4.36364 5.62117C4.36364 3.6139 5.99273 1.98481 8 1.98481C10.0073 1.98481 11.6364 3.6139 11.6364 5.62117C11.6364 7.62844 10.0073 9.25753 8 9.25753ZM8 3.43935C6.79273 3.43935 5.81818 4.4139 5.81818 5.62117C5.81818 6.82844 6.79273 7.80299 8 7.80299C9.20727 7.80299 10.1818 6.82844 10.1818 5.62117C10.1818 4.4139 9.20727 3.43935 8 3.43935Z" fill="#4D4D4D"/>
</svg>
