<svg width="61" height="60" viewBox="0 0 61 60" fill="none" xmlns="http://www.w3.org/2000/svg">
<circle cx="30.5" cy="30" r="30" fill="#26BB74"/>
<path d="M36.5 33C36.317 33 36.142 33.022 35.968 33.054L27.446 24.532C27.478 24.359 27.5 24.182 27.5 24C27.5 22.346 26.154 21 24.5 21C22.846 21 21.5 22.346 21.5 24C21.5 25.302 22.339 26.401 23.5 26.815V33.184C22.9168 33.3897 22.4116 33.7708 22.0535 34.2749C21.6955 34.7791 21.5021 35.3816 21.5 36C21.5 37.654 22.846 39 24.5 39C25.1183 38.9982 25.7209 38.805 26.225 38.4469C26.7291 38.0888 27.1099 37.5833 27.315 37H33.684C33.8893 37.5832 34.2701 38.0886 34.7741 38.4467C35.2782 38.8048 35.8807 38.9981 36.499 39C38.153 39 39.499 37.654 39.499 36C39.499 34.346 38.154 33 36.5 33ZM25.5 33.184V26.816C25.829 26.698 26.129 26.525 26.394 26.308L34.193 34.107C33.9728 34.3731 33.8009 34.6757 33.685 35.001H27.315C27.1665 34.5823 26.9265 34.202 26.6125 33.8877C26.2986 33.5734 25.9185 33.333 25.5 33.184ZM24.5 23C24.6981 22.9998 24.8917 23.0584 25.0565 23.1683C25.2213 23.2782 25.3497 23.4345 25.4256 23.6175C25.5015 23.8004 25.5214 24.0018 25.4828 24.196C25.4442 24.3903 25.3489 24.5688 25.2088 24.7088C25.0688 24.8489 24.8903 24.9442 24.696 24.9828C24.5018 25.0214 24.3004 25.0015 24.1175 24.9256C23.9345 24.8497 23.7782 24.7213 23.6683 24.5565C23.5584 24.3917 23.4998 24.1981 23.5 24C23.5 23.449 23.948 23 24.5 23ZM24.5 37C24.2425 36.9885 23.9994 36.8781 23.8213 36.6918C23.6431 36.5055 23.5437 36.2577 23.5437 36C23.5437 35.7423 23.6431 35.4945 23.8213 35.3082C23.9994 35.1219 24.2425 35.0115 24.5 35C24.7575 35.0115 25.0006 35.1219 25.1787 35.3082C25.3569 35.4945 25.4563 35.7423 25.4563 36C25.4563 36.2577 25.3569 36.5055 25.1787 36.6918C25.0006 36.8781 24.7575 36.9885 24.5 37ZM36.5 37C36.2425 36.9885 35.9994 36.8781 35.8213 36.6918C35.6431 36.5055 35.5437 36.2577 35.5437 36C35.5437 35.7423 35.6431 35.4945 35.8213 35.3082C35.9994 35.1219 36.2425 35.0115 36.5 35C36.7575 35.0115 37.0006 35.1219 37.1787 35.3082C37.3569 35.4945 37.4563 35.7423 37.4563 36C37.4563 36.2577 37.3569 36.5055 37.1787 36.6918C37.0006 36.8781 36.7575 36.9885 36.5 37Z" fill="white"/>
</svg>
