<svg width="61" height="60" viewBox="0 0 61 60" fill="none" xmlns="http://www.w3.org/2000/svg">
<circle cx="30.5" cy="30" r="30" fill="#26BB74"/>
<path d="M39.42 20.38C38.2973 20.1286 37.1505 20.0011 36 20C34.9135 19.931 33.8241 20.0775 32.7944 20.431C31.7647 20.7846 30.815 21.3382 30 22.06C28.9267 23.1333 27.8633 24.2033 26.81 25.27C25.6 25.14 22.73 25.07 20.81 27.01C20.6237 27.1974 20.5192 27.4508 20.5192 27.715C20.5192 27.9792 20.6237 28.2326 20.81 28.42L32.11 39.74C32.2974 39.9262 32.5508 40.0308 32.815 40.0308C33.0792 40.0308 33.3326 39.9262 33.52 39.74C35.47 37.74 35.41 34.92 35.29 33.74L38.5 30.54C41.69 27.35 40.24 21.36 40.18 21.11C40.1338 20.9296 40.0382 20.7657 39.904 20.6368C39.7697 20.5078 39.6021 20.4189 39.42 20.38ZM37.06 29.13L33.5 32.67C33.3847 32.7864 33.2998 32.9294 33.2527 33.0863C33.2056 33.2432 33.1978 33.4093 33.23 33.57C33.446 34.9078 33.258 36.2796 32.69 37.51L23.02 27.82C24.2699 27.2448 25.667 27.0701 27.02 27.32C27.1801 27.3408 27.3428 27.3226 27.4943 27.2669C27.6458 27.2112 27.7816 27.1196 27.89 27C27.89 27 29.29 25.55 31.4 23.44C32.6974 22.3981 34.3401 21.8839 36 22C36.7808 22.0039 37.56 22.0708 38.33 22.2C38.57 23.63 38.95 27.24 37.06 29.13Z" fill="white"/>
<path d="M34.23 28.3C35.3346 28.3 36.23 27.4046 36.23 26.3C36.23 25.1954 35.3346 24.3 34.23 24.3C33.1254 24.3 32.23 25.1954 32.23 26.3C32.23 27.4046 33.1254 28.3 34.23 28.3Z" fill="white"/>
<path d="M23.5 34C21.5 35 21.5 39 21.5 39C23.3511 38.9472 25.1231 38.2384 26.5 37L23.5 34Z" fill="white"/>
</svg>
