<svg width="61" height="60" viewBox="0 0 61 60" fill="none" xmlns="http://www.w3.org/2000/svg">
<circle cx="30.5" cy="30" r="30" fill="#26BB74"/>
<path d="M39.416 27.564C39.4688 27.4439 39.4975 27.3146 39.5003 27.1835C39.5031 27.0523 39.48 26.9219 39.4323 26.7997C39.3847 26.6774 39.3134 26.5658 39.2226 26.4711C39.1318 26.3765 39.0232 26.3007 38.903 26.248L25.828 20.492C24.833 20.054 23.608 20.543 23.183 21.534L20.973 26.688C20.7651 27.1755 20.7591 27.7256 20.9563 28.2176C21.1535 28.7095 21.5379 29.1031 22.025 29.312L28.063 31.9L26.823 35H22.5V32H20.5V40H22.5V37H26.823C27.646 37 28.375 36.506 28.679 35.742L29.901 32.688L35.106 34.918C35.3484 35.022 35.6221 35.0261 35.8674 34.9292C36.1128 34.8324 36.31 34.6425 36.416 34.401L36.728 33.691L38.429 34.371L40.429 29.371L38.893 28.758L39.416 27.564ZM34.982 32.69L22.813 27.475L25.021 22.323L37.183 27.677L34.982 32.69Z" fill="white"/>
</svg>
