<svg width="61" height="60" viewBox="0 0 61 60" fill="none" xmlns="http://www.w3.org/2000/svg">
<circle cx="30.5" cy="30" r="30" fill="#26BB74"/>
<path d="M30.5 20C24.986 20 20.5 24.486 20.5 30V34.143C20.5 35.167 21.397 36 22.5 36H23.5C23.7652 36 24.0196 35.8946 24.2071 35.7071C24.3946 35.5196 24.5 35.2652 24.5 35V29.857C24.5 29.5918 24.3946 29.3374 24.2071 29.1499C24.0196 28.9624 23.7652 28.857 23.5 28.857H22.592C23.148 24.987 26.478 22 30.5 22C34.522 22 37.852 24.987 38.408 28.857H37.5C37.2348 28.857 36.9804 28.9624 36.7929 29.1499C36.6054 29.3374 36.5 29.5918 36.5 29.857V36C36.5 37.103 35.603 38 34.5 38H32.5V37H28.5V40H34.5C36.706 40 38.5 38.206 38.5 36C39.603 36 40.5 35.167 40.5 34.143V30C40.5 24.486 36.014 20 30.5 20Z" fill="white"/>
</svg>
