<svg width="61" height="60" viewBox="0 0 61 60" fill="none" xmlns="http://www.w3.org/2000/svg">
<circle cx="30.5" cy="30" r="30" fill="#26BB74"/>
<path d="M34.499 26.5H36.499C36.499 23.663 33.744 22.369 31.499 22.071V20H29.499V22.071C27.254 22.369 24.499 23.663 24.499 26.5C24.499 29.206 27.165 30.613 29.499 30.93V35.9C28.051 35.649 26.499 34.876 26.499 33.5H24.499C24.499 36.089 26.924 37.619 29.499 37.936V40H31.499V37.93C33.744 37.632 36.499 36.337 36.499 33.5C36.499 30.663 33.744 29.369 31.499 29.071V24.1C32.829 24.339 34.499 25.041 34.499 26.5ZM26.499 26.5C26.499 25.041 28.169 24.339 29.499 24.1V28.899C28.128 28.646 26.499 27.897 26.499 26.5ZM34.499 33.5C34.499 34.959 32.829 35.661 31.499 35.9V31.1C32.829 31.339 34.499 32.041 34.499 33.5Z" fill="white"/>
</svg>
