<svg width="61" height="60" viewBox="0 0 61 60" fill="none" xmlns="http://www.w3.org/2000/svg">
<circle cx="30.5" cy="30" r="30" fill="#26BB74"/>
<path d="M30.5 20C24.986 20 20.5 24.486 20.5 30C20.5 35.514 24.986 40 30.5 40C36.014 40 40.5 35.514 40.5 30C40.5 24.486 36.014 20 30.5 20ZM30.5 38C26.089 38 22.5 34.411 22.5 30C22.5 25.589 26.089 22 30.5 22C34.911 22 38.5 25.589 38.5 30C38.5 34.411 34.911 38 30.5 38Z" fill="white"/>
<path d="M27 30C27.8284 30 28.5 29.3284 28.5 28.5C28.5 27.6716 27.8284 27 27 27C26.1716 27 25.5 27.6716 25.5 28.5C25.5 29.3284 26.1716 30 27 30Z" fill="white"/>
<path d="M33.993 29.986C34.8176 29.986 35.486 29.3176 35.486 28.493C35.486 27.6684 34.8176 27 33.993 27C33.1684 27 32.5 27.6684 32.5 28.493C32.5 29.3176 33.1684 29.986 33.993 29.986Z" fill="white"/>
<path d="M30.5 36C34.5 36 35.5 32 35.5 32H25.5C25.5 32 26.5 36 30.5 36Z" fill="white"/>
</svg>
