<svg width="61" height="60" viewBox="0 0 61 60" fill="none" xmlns="http://www.w3.org/2000/svg">
<circle cx="30.5" cy="30" r="30" fill="#26BB74"/>
<path d="M20.5 38H40.5V40H20.5V38ZM22.5 21V35C22.5 35.2652 22.6054 35.5196 22.7929 35.7071C22.9804 35.8946 23.2348 36 23.5 36H28.5C28.7652 36 29.0196 35.8946 29.2071 35.7071C29.3946 35.5196 29.5 35.2652 29.5 35V21C29.5 20.7348 29.3946 20.4804 29.2071 20.2929C29.0196 20.1054 28.7652 20 28.5 20H23.5C23.2348 20 22.9804 20.1054 22.7929 20.2929C22.6054 20.4804 22.5 20.7348 22.5 21ZM24.5 22H27.5V34H24.5V22ZM31.5 35C31.5 35.2652 31.6054 35.5196 31.7929 35.7071C31.9804 35.8946 32.2348 36 32.5 36H37.5C37.7652 36 38.0196 35.8946 38.2071 35.7071C38.3946 35.5196 38.5 35.2652 38.5 35V25C38.5 24.7348 38.3946 24.4804 38.2071 24.2929C38.0196 24.1054 37.7652 24 37.5 24H32.5C32.2348 24 31.9804 24.1054 31.7929 24.2929C31.6054 24.4804 31.5 24.7348 31.5 25V35ZM33.5 26H36.5V34H33.5V26Z" fill="white"/>
</svg>
